        <svg width="45px" height="45px" viewBox="0 0 45 45" version="1.1" xmlns="http://www.w3.org/2000/svg" xlink="http://www.w3.org/1999/xlink">
            <g id="Page-1" stroke="none" strokeWidth="1" fill="none" fillRule="evenodd">
                <g id="result" transform="translate(-965.000000, -1067.000000)" fillRule="nonzero">
                    <g id="share" transform="translate(965.000000, 1067.000000)">
                        <circle id="Oval" fill="#FBB040" cx="35.769375" cy="35.769375" r="35.769375"></circle>
                        <path d="M67.64625,51.98625 C64.726875,42.091875 61.723125,32.625 58.573125,29.154375 C60.024375,25.531875 59.07375,20.53125 58.905,19.72125 C59.8505046,16.4901127 60.2310934,13.1199982 60.03,9.759375 C59.821875,6.384375 58.905,2.07 55.53,0.455625 C54.5365476,-0.0725995332 53.3629428,-0.144411015 52.3125,0.25875 C49.156875,1.485 47.098125,6.688125 45.5625,10.485 C45.106875,11.61 44.713125,12.6225 44.386875,13.246875 C42.885,16.0875 41.608125,15.789375 41.608125,15.789375 C41.462173,15.7418133 41.3019583,15.7875268 41.2030796,15.9049453 C41.1042008,16.0223638 41.0864192,16.1880209 41.158125,16.32375 C41.4490083,16.8923264 41.4797743,17.5589221 41.2425,18.151875 C40.46625,18.151875 39.63375,18.208125 38.761875,18.2475 C35.7637427,18.4489798 32.7543773,18.4132436 29.761875,18.140625 L29.424375,17.825625 L29.311875,17.724375 C28.029375,16.515 25.3125,13.989375 24.3,11.385 C23.0625,8.19 19.839375,3.065625 16.576875,1.6875 C15.6480266,1.24591633 14.5762959,1.21529545 13.62375,1.603125 C9.545625,3.335625 10.24875,13.1175 10.24875,13.53375 C10.2461183,13.5448461 10.2461183,13.5564039 10.24875,13.5675 C10.4625,14.90625 10.60875,17.01 10.24875,17.505 C10.1398939,17.6585917 10.1589816,17.868556 10.29375,18 C11.0041604,18.8068503 11.4738475,19.7968962 11.649375,20.8575 C11.725791,21.5447022 11.7464835,22.2369605 11.71125,22.9275 C11.6775,25.385625 11.626875,29.05875 13.685625,31.06125 C13.08375,32.32125 12.763125,33.148125 12.751875,33.181875 C12.7295244,33.2571255 12.7295244,33.3372495 12.751875,33.4125 C12.785625,33.541875 13.528125,36.523125 10.935,37.288125 C10.7577717,37.3429743 10.6468211,37.518647 10.6734502,37.7022477 C10.7000793,37.8858484 10.8563668,38.0227614 11.041875,38.025 C11.604375,38.025 13.24125,38.188125 13.815,38.91375 C14.0193453,39.190147 14.0799168,39.54731 13.978125,39.875625 C12.853125,44.64 12.470625,48.09375 12.853125,50.13 C12.8826884,50.2768342 12.9963972,50.3922252 13.1427814,50.4239418 C13.2891655,50.4556584 13.4404377,50.3976798 13.528125,50.27625 C13.764375,49.944375 14.3775,49.291875 14.788125,49.370625 C15.06375,49.426875 15.316875,49.87125 15.485625,50.6025 C15.6346973,51.2589117 15.6783683,51.9348632 15.615,52.605 C15.4125,55.00125 15.226875,61.498125 18.365625,67.044375 C26.8563781,71.7600806 36.8995444,72.8209172 46.1881477,69.9832044 C55.4767511,67.1454915 63.2123841,60.6531463 67.618125,51.9975 L67.64625,51.98625 Z" id="Path" fill="#231F20"></path>
                        <path d="M60.811875,34.756875 L37.2375,18.88875 L37.2375,28.45125 C37.2375,28.45125 10.0575,30.52125 10.0575,50.625 C10.0575,50.625 13.494375,42.373125 26.645625,40.809375 C30.1670285,40.4330267 33.7075089,40.2639852 37.24875,40.303125 L37.24875,50.625 L60.811875,34.756875 Z" id="Path" fill="#FFFFFF"></path>
                    </g>
                </g>
            </g>
        </svg>