        <svg width="45px" height="45px" viewBox="0 0 45 45" version="1.1" xmlns="http://www.w3.org/2000/svg" xlink="http://www.w3.org/1999/xlink">
            <defs>
                <linearGradient x1="0%" y1="50.0039354%" x2="100%" y2="50.0039354%" id="linearGradient-1">
                    <stop stopColor="#231F20" offset="0%"></stop>
                    <stop stopColor="#c24445" offset="100%"></stop>
                </linearGradient>
                <linearGradient x1="0%" y1="50%" x2="100.023603%" y2="50%" id="linearGradient-2">
                    <stop stopColor="#231F20" offset="0%"></stop>
                    <stop stopColor="#c24445" offset="100%"></stop>
                </linearGradient>
                <linearGradient x1="21.5871069%" y1="85.701459%" x2="87.6046989%" y2="13.1537598%" id="linearGradient-3">
                    <stop stopColor="#231F20" offset="0%"></stop>
                    <stop stopColor="#c24445" offset="100%"></stop>
                </linearGradient>
                <linearGradient x1="31.8198269%" y1="64.2873176%" x2="56.5588545%" y2="35.7126824%" id="linearGradient-4">
                    <stop stopColor="#231F20" offset="0%"></stop>
                    <stop stopColor="#c24445" offset="100%"></stop>
                </linearGradient>
                <linearGradient x1="2.05564263%" y1="76.1278208%" x2="67.3611401%" y2="23.872154%" id="linearGradient-5">
                    <stop stopColor="#231F20" offset="0%"></stop>
                    <stop stopColor="#c24445" offset="100%"></stop>
                </linearGradient>
                <linearGradient x1="32.6666644%" y1="76.1390585%" x2="97.9722153%" y2="23.8609415%" id="linearGradient-6">
                    <stop stopColor="#231F20" offset="0%"></stop>
                    <stop stopColor="#c24445" offset="100%"></stop>
                </linearGradient>
                <linearGradient x1="34.3379522%" y1="57.3383119%" x2="64.49544%" y2="44.0499278%" id="linearGradient-7">
                    <stop stopColor="#231F20" offset="0%"></stop>
                    <stop stopColor="#c24445" offset="100%"></stop>
                </linearGradient>
                <linearGradient x1="65.6725365%" y1="57.3340525%" x2="35.5242604%" y2="44.0536113%" id="linearGradient-8">
                    <stop stopColor="#231F20" offset="0%"></stop>
                    <stop stopColor="#c24445" offset="100%"></stop>
                </linearGradient>
                <linearGradient x1="9.16666667%" y1="90.8888889%" x2="90.8888889%" y2="9.11111111%" id="linearGradient-9">
                    <stop stopColor="#231F20" offset="0%"></stop>
                    <stop stopColor="#c24445" offset="100%"></stop>
                </linearGradient>
            </defs>
            <g id="Page-1" stroke="none" strokeWidth="1" fill="none" fillRule="evenodd">
                <g id="result" transform="translate(-583.000000, -1067.000000)" fillRule="nonzero">
                    <g id="gift" transform="translate(583.000000, 1067.000000)">
                        <circle id="Oval" fill="#FBB040" cx="35.769375" cy="35.769375" r="35.769375"></circle>
                        <path d="M67.64625,51.98625 C64.726875,42.091875 61.723125,32.625 58.573125,29.154375 C60.024375,25.531875 59.07375,20.53125 58.905,19.72125 C59.8505046,16.4901127 60.2310934,13.1199982 60.03,9.759375 C59.821875,6.384375 58.905,2.07 55.53,0.455625 C54.5365476,-0.0725995332 53.3629428,-0.144411015 52.3125,0.25875 C49.156875,1.485 47.098125,6.688125 45.5625,10.485 C45.106875,11.61 44.713125,12.6225 44.386875,13.246875 C42.885,16.0875 41.608125,15.789375 41.608125,15.789375 C41.462173,15.7418133 41.3019583,15.7875268 41.2030796,15.9049453 C41.1042008,16.0223638 41.0864192,16.1880209 41.158125,16.32375 C41.4490083,16.8923264 41.4797743,17.5589221 41.2425,18.151875 C40.46625,18.151875 39.63375,18.208125 38.761875,18.2475 C35.7637427,18.4489798 32.7543773,18.4132436 29.761875,18.140625 L29.424375,17.825625 L29.311875,17.724375 C28.029375,16.515 25.3125,13.989375 24.3,11.385 C23.0625,8.19 19.839375,3.065625 16.576875,1.6875 C15.6480266,1.24591633 14.5762959,1.21529545 13.62375,1.603125 C9.545625,3.335625 10.24875,13.1175 10.24875,13.53375 C10.2461183,13.5448461 10.2461183,13.5564039 10.24875,13.5675 C10.4625,14.90625 10.60875,17.01 10.24875,17.505 C10.1398939,17.6585917 10.1589816,17.868556 10.29375,18 C11.0041604,18.8068503 11.4738475,19.7968962 11.649375,20.8575 C11.725791,21.5447022 11.7464835,22.2369605 11.71125,22.9275 C11.6775,25.385625 11.626875,29.05875 13.685625,31.06125 C13.08375,32.32125 12.763125,33.148125 12.751875,33.181875 C12.7295244,33.2571255 12.7295244,33.3372495 12.751875,33.4125 C12.785625,33.541875 13.528125,36.523125 10.935,37.288125 C10.7577717,37.3429743 10.6468211,37.518647 10.6734502,37.7022477 C10.7000793,37.8858484 10.8563668,38.0227614 11.041875,38.025 C11.604375,38.025 13.24125,38.188125 13.815,38.91375 C14.0193453,39.190147 14.0799168,39.54731 13.978125,39.875625 C12.853125,44.64 12.470625,48.09375 12.853125,50.13 C12.8826884,50.2768342 12.9963972,50.3922252 13.1427814,50.4239418 C13.2891655,50.4556584 13.4404377,50.3976798 13.528125,50.27625 C13.764375,49.944375 14.3775,49.291875 14.788125,49.370625 C15.06375,49.426875 15.316875,49.87125 15.485625,50.6025 C15.6346973,51.2589117 15.6783683,51.9348632 15.615,52.605 C15.4125,55.00125 15.226875,61.498125 18.365625,67.044375 C26.8563781,71.7600806 36.8995444,72.8209172 46.1881477,69.9832044 C55.4767511,67.1454915 63.2123841,60.6531463 67.618125,51.9975 L67.64625,51.98625 Z" id="Path" fill="#231F20"></path>
                        <path d="M31.033125,71.2125 C34.3949266,71.6666123 37.8043583,71.6382004 41.158125,71.128125 L41.158125,0.405 C39.3744897,0.135792003 37.5732119,0 35.769375,0 C34.1853431,0.00407029507 32.6032533,0.111171389 31.033125,0.320625 L31.033125,71.2125 Z" id="Path" fill="#c24445"></path>
                        <path d="M0,35.769375 C0.00407582947,37.351538 0.111177436,38.9317564 0.320625,40.5 L71.195625,40.5 C71.6497373,37.1381984 71.6213254,33.7287667 71.11125,30.375 L0.405,30.375 C0.13601295,32.1605484 0,33.9636794 0,35.769375 L0,35.769375 Z" id="Path" fill="#c24445"></path>
                        <polygon id="Path" fill="#c24445" points="33.744375 31.635 15.85125 49.53375 23.00625 49.53375 23.00625 56.694375 38.655 35.983125"></polygon>
                        <polygon id="Path" fill="#c24445" points="37.254375 31.635 55.153125 49.53375 47.9925 49.53375 47.9925 56.694375 33.4575 36.5625"></polygon>
                        <path d="M20.570625,25.66125 L36.095625,33.42375 L20.570625,41.18625 C19.5558432,41.6916224 18.3516474,41.6350004 17.3887639,41.0366371 C16.4258804,40.4382738 15.8418695,39.383653 15.845607,38.25 L15.845607,28.580625 C15.8477198,27.4499736 16.4340779,26.4007234 17.3959452,25.8064268 C18.3578124,25.2121303 19.5585318,25.1572219 20.570625,25.66125 Z" id="Path" fill="#c24445"></path>
                        <path d="M51.620625,25.66125 L36.095625,33.42375 L51.620625,41.18625 C52.6324612,41.6936722 53.8350065,41.6403584 54.797969,41.0453851 C55.7609315,40.4504119 56.3466806,39.3988153 56.3456264,38.266875 L56.3456264,28.580625 C56.3466806,27.4486847 55.7609315,26.3970881 54.797969,25.8021149 C53.8350065,25.2071416 52.6324612,25.1538278 51.620625,25.66125 L51.620625,25.66125 Z" id="Path" fill="#c24445"></path>
                        <path d="M17.74125,25.61625 C17.454375,26.17875 18.2025,27.045 21.94875,28.36125 C30.110625,31.23 36.095625,33.42375 36.095625,33.42375 L20.570625,25.66125 C19.6846504,25.2117532 18.6410709,25.1951555 17.74125,25.61625 Z" id="Path" fill="#c24445"></path>
                        <path d="M54.455625,25.61625 C54.7425,26.17875 53.994375,27.045 50.248125,28.36125 C42.08625,31.23 36.095625,33.42375 36.095625,33.42375 L51.620625,25.66125 C52.508553,25.2116087 53.5538736,25.1950163 54.455625,25.61625 Z" id="Path" fill="#c24445"></path>
                        <rect id="Rectangle" fill="#c24445" x="31.033125" y="28.36125" width="10.125" height="10.125" rx="5.0625"></rect>
                    </g>
                </g>
            </g>
        </svg>
    